<svg xmlns="http://www.w3.org/2000/svg" version="1.2" viewBox="0 0 25.9 17">
  <path fill-rule="evenodd" d="M20.2 17a5.7 5.7 0 0 1-5.7-5.6l-1.6-.9-1.5.9A5.9 5.9 0 0 1 5.7 17 5.7 5.7 0 0 1 0 11.2v-.5s1-7.9 1.8-9C2.6.5 5.7.1 6.3 0l.1 1c-1.3.2-3.3.7-3.8 1.3-.3.4-.8 2.7-1.2 5a5.7 5.7 0 0 1 9.9 3l1.6-1 1.7 1a5.7 5.7 0 0 1 5.6-4.9c1.6 0 3.1.7 4.1 1.8-.4-2.3-.8-4.5-1.1-4.9-.5-.6-2.5-1.1-3.8-1.3l.1-1c.6.1 3.6.5 4.5 1.7.8 1.1 1.7 7.7 1.9 9v.5c0 3.2-2.6 5.8-5.7 5.8zm0-10.6a4.8 4.8 0 0 0-4.7 4.8c0 2.6 2.1 4.8 4.7 4.8s4.7-2.2 4.7-4.8c0-2.6-2.1-4.8-4.7-4.8zm-14.5 0A4.8 4.8 0 0 0 1 11.2C1 13.8 3.1 16 5.7 16s4.7-2.2 4.7-4.8c0-2.6-2.1-4.8-4.7-4.8Z"/>
</svg>