<svg xmlns="http://www.w3.org/2000/svg" xml:space="preserve" viewBox="-53 358.9 540 140">
  <path fill="#2d3233" d="M411.27 393.34c-.7 0-1.4.2-2 .7-.6.4-.9 1.2-.9 2.2 0 1 .3 1.7.9 2.2a3.18 3.18 0 0 0 4.1.1c.6-.5.9-1.2.9-2.2 0-1-.3-1.7-.9-2.2-.6-.5-1.3-.8-2.1-.8zm-198.9 12.3-12.1 1.3v.5a15.5 15.5 0 0 0-7.1-1.7c-2.8 0-5.3.5-7.4 1.5-2.2 1-3.9 2.3-5.3 4a14.8 14.8 0 0 0-3 5.5c-.6 2-.7 4-.4 6.1.3 2 1.1 4 2.4 5.8 1.2 1.8 3.1 3.4 5.4 4.6-2.5 1.1-4.5 2.5-6 4.4-1.4 1.8-2.4 3.9-2.8 6.1-.4 2.3-.4 4.5.2 6.8.6 2.3 1.6 4.3 3 6.2 1.5 1.9 3.3 3.4 5.6 4.6 2.3 1.2 4.9 1.8 8 1.8 3.1 0 5.7-.6 8-1.7 2.2-1.2 4.1-2.7 5.5-4.5a16.25 16.25 0 0 0 3.2-13c-.4-2.2-1.3-4.3-2.7-6.2-1.4-1.9-3.3-3.4-5.8-4.6 2-1.3 3.7-2.9 5-4.7 1.3-1.8 2.1-3.8 2.4-5.8.4-2 .2-4.1-.4-6.2-.6-2.1-1.7-4.1-3.4-6h7.8zm125.7.1c-2.8 0-5.5.5-7.9 1.6-2.4 1.1-4.5 2.6-6.3 4.4-1.8 1.9-3.2 4-4.2 6.5s-1.5 5.1-1.5 7.9c0 2.7.5 5.3 1.5 7.8 1 2.4 2.4 4.6 4.2 6.4 1.8 1.9 3.9 3.3 6.3 4.4 2.4 1.1 5 1.6 7.8 1.6s5.3-.5 7.8-1.6 4.6-2.6 6.4-4.4c1.8-1.8 3.2-3.9 4.2-6.4 1-2.5 1.5-5.1 1.6-7.8 0-2.8-.5-5.4-1.5-7.9s-2.4-4.7-4.2-6.5c-1.8-1.9-3.9-3.3-6.3-4.4-2.4-1.1-5.1-1.6-7.9-1.6zm75.8 0c-.8.3-1.6.5-2.4.8-.8.3-1.6.5-2.4.8v38.5l4.8-.9zm-179.1.1c-1.7-.1-3.4.3-5.1 1.1-1.7.8-3.2 2-4.6 3.4a20.6 20.6 0 0 0-3.3 4.3v-8.3l-5 .7v38.9l5-.9v-21.7c0-1.2.3-2.5 1-4 .7-1.4 1.5-2.8 2.6-4.1 1.1-1.3 2.3-2.3 3.6-3.2 1.3-.9 2.6-1.3 3.9-1.3 1 0 1.8.2 2.4.6.7.4 1.3 1 2 1.6l2.5-4.6c-1.6-1.6-3.2-2.4-5-2.5zm136 0c-1.7.5-3.3.9-4.9 1.2v38.9l5-.9v-25.8c0-.1.1-.4.3-.9.2-.5.3-.8.4-.9 1.1-2.2 2.6-3.8 4.4-5.1 1.9-1.3 4-1.9 6.4-1.9 3.3 0 5.8 1 7.3 3 1.5 2.1 2.3 4.7 2.3 7.8v24.6l5-.7v-23.8c0-4.7-1.2-8.4-3.7-11.2-2.5-2.8-6.1-4.2-10.9-4.2-2.5 0-4.7.5-6.6 1.6-2 1.1-3.6 2.6-5 4.5zm-217.15.09c-.7 0-1.43.04-2.15.11-2.9.3-5.6 1.2-8 2.8a19.2 19.2 0 0 0-6 6.6c-1.6 2.8-2.4 6.2-2.4 10.3 0 3.1.5 5.9 1.6 8.4a20 20 0 0 0 10.5 10.6 20.9 20.9 0 0 0 15.1.4c2.6-.9 5-2.4 7.2-4.4v-5.9c-2 1.7-4.2 3.2-6.6 4.5-2.4 1.3-5 2-7.7 2-1.8 0-3.5-.3-5.1-.9-1.6-.5-3-1.4-4.3-2.4-1.3-1.1-2.4-2.3-3.3-3.8-.9-1.4-1.6-3-2-4.8l30-9.7c-.5-3.4-1.8-6.1-3.9-8.2-1.9-2.2-4.2-3.7-6.8-4.6a18.72 18.72 0 0 0-6.15-1.01zm288 0c-.7 0-1.43.04-2.15.11-2.9.3-5.6 1.2-8 2.8a19.2 19.2 0 0 0-6 6.6c-1.6 2.8-2.4 6.2-2.4 10.3 0 3.1.5 5.9 1.6 8.4a20 20 0 0 0 10.5 10.6 20.9 20.9 0 0 0 15.1.4c2.6-.9 5-2.4 7.2-4.4v-5.9c-2 1.7-4.2 3.2-6.6 4.5-2.4 1.3-5 2-7.7 2-1.8 0-3.5-.3-5.1-.9-1.6-.5-3-1.4-4.3-2.4-1.3-1.1-2.4-2.3-3.3-3.8-.9-1.4-1.6-3-2-4.8l30-9.7c-.5-3.4-1.8-6.1-3.9-8.2-1.9-2.2-4.2-3.7-6.8-4.6a18.72 18.72 0 0 0-6.15-1.01zm-168.55.11-13 26.8-14.3-26.7-5.1.5 16.7 31.4-11.3 23.4 4.9.6 27.1-55.4zm8.9.7-.6 4.9h23.4l-25.8 32.7.4 1h33.6l.7-4.8v-.1h-25.8l25.8-32.7-.3-1zm-128.62 3.85c.9-.05 1.77 0 2.62.15 1.7.3 3.2.9 4.6 2a8.7 8.7 0 0 1 3 4.4l-23.4 8.1c.1-2.6.7-5 1.7-6.9 1-2 2.3-3.6 3.8-4.8a13.84 13.84 0 0 1 7.68-2.95zm288 0c.9-.05 1.77 0 2.62.15 1.7.3 3.2.9 4.6 2a8.7 8.7 0 0 1 3 4.4l-23.4 8.1c.1-2.6.7-5 1.7-6.9 1-2 2.3-3.6 3.8-4.8a13.84 13.84 0 0 1 7.68-2.95zm-103.38.05c2 0 4 .4 5.8 1.2 1.8.9 3.4 2 4.7 3.4 1.3 1.4 2.4 3 3.1 4.9.8 1.9 1.2 3.8 1.2 5.9h-.1c0 2-.4 3.9-1.1 5.8-.8 1.8-1.8 3.5-3.1 4.9a14 14 0 0 1-10.5 4.6c-2.1 0-4-.4-5.8-1.2-1.8-.9-3.4-2-4.7-3.4-1.3-1.4-2.4-3-3.1-4.9-.7-1.8-1.1-3.8-1.1-5.8s.4-3.9 1.1-5.8c.8-1.8 1.8-3.5 3.1-4.9 1.3-1.4 2.9-2.5 4.7-3.4 1.8-.9 3.8-1.3 5.8-1.3zm-145.2.1c1.3 0 2.5.2 3.8.6 1.3.5 2.4 1.1 3.4 2a10.04 10.04 0 0 1 3.3 7.8c-.1 1.7-.4 3.2-1.1 4.5a8.97 8.97 0 0 1-5.6 4.9c-1.3.4-2.6.6-3.9.6-1.3 0-2.6-.2-3.8-.6-1.2-.4-2.3-1-3.3-1.8a8.86 8.86 0 0 1-3.3-7.2c0-1.8.3-3.3.9-4.7a9.5 9.5 0 0 1 5.8-5.4c1.3-.5 2.5-.7 3.8-.7zm.1 25c2 0 3.9.4 5.6 1.3 1.7.9 3.2 2.1 4.3 3.8 1.1 1.7 1.7 3.7 1.7 6.1 0 1.9-.3 3.5-1 4.8-.6 1.4-1.5 2.6-2.6 3.5a12.9 12.9 0 0 1-8.1 2.8c-1.4 0-2.8-.2-4.2-.7a10.23 10.23 0 0 1-6.3-5.4c-.7-1.4-1-3-1-4.8 0-2.6.6-4.7 1.7-6.4 1.1-1.7 2.6-3 4.3-3.8 1.8-.8 3.6-1.2 5.6-1.2z"/>
  <path fill="#feea39" d="M99.08 428.9a61.77 61.77 0 1 1-123.55 0 61.81 61.81 0 0 1 123.62 0z"/>
  <path fill="#14b0cb" d="M38.03 390.28c-5.8 0-12.33 1.66-16.82 4.07a20.7 20.7 0 0 0-10.45-.43c-4.05.97-6.3 3.81-7.42 6.76-1.25 3.3-.08 6.46 1.76 9.01-4 7.72-5.4 13.98-5 22.14.75 14.88 11.35 28.67 26 33.67a38.3 38.3 0 0 0 29.06-1.9 39.6 39.6 0 0 0 17.95-18.31c.54-1.03.9-2.05 1.2-3.12.27-.97.54-2.95.13-4a2.61 2.61 0 0 0-.84-1.08l-.03-.03-.03-.02c-.43-.28-.96-.67-1.73-.9a3.23 3.23 0 0 0-2.74.42c-2.51 1.83-4 3.54-5.87 5.32a3.29 3.29 0 0 0-.8 3.68 3.6 3.6 0 0 0 1.38 1.71l-.89 1.32c-2.28 3.4-7.32 7.1-10.83 8.7a33.45 33.45 0 0 1-23.7 1.5 31.6 31.6 0 0 1-21.18-27.42 31.09 31.09 0 0 1 4.03-18.1v-.01c.69-1.14 1.45-2.22 2.24-3.37l.82-1.2-1.16-.87a9.33 9.33 0 0 1-2.55-2.67 3.3 3.3 0 0 1-.4-2.54 2.8 2.8 0 0 1 1.46-1.57c.77-.4 1.84-.66 3-.72 2.34-.13 5.09.53 6.49 1.32l.78.44.77-.48c3.02-1.9 6.62-3.38 13.26-4.08 3.18-.34 6.8.02 9.84.68 3.04.67 5.6 1.78 6.28 2.32a7 7 0 0 1 1.9 2.28 4 4 0 0 1 .4 1.33 5.63 5.63 0 0 1-1.8 4.12 8514.8 8514.8 0 0 0-32.42 32.55 3.1 3.1 0 0 0-.89 2.32c0 .87.36 1.89 1.21 2.58.6.48 1.34.9 2.27.91.94.02 1.92-.46 2.58-1.25l-.08.1s4.7-4.8 13.01-13.12l11.54-11.53c1.86-1.86 3.75-3.84 5.65-5.74 1.83-1.83 3.78-3.97 4.88-6.55a10.85 10.85 0 0 0-1.12-10.54c-2.42-3.44-6.44-5.3-10.43-6.36-3.99-1.07-8-1.34-10.71-1.34z"/>
</svg>